<svg xmlns="http://www.w3.org/2000/svg" viewBox="0 0 512 512">
  <defs>
    <linearGradient id="bg" x1="0" y1="0" x2="1" y2="1">
      <stop offset="0%" stop-color="#34495e"/>
      <stop offset="100%" stop-color="#2c3e50"/>
    </linearGradient>
  </defs>
  <rect width="512" height="512" rx="96" fill="url(#bg)"/>
  <!-- Anneau de cahier -->
  <rect x="96" y="48" width="32" height="64" rx="12" fill="#bdc3c7"/>
  <rect x="384" y="48" width="32" height="64" rx="12" fill="#bdc3c7"/>
  <!-- Corps du planning -->
  <rect x="72" y="96" width="368" height="368" rx="40" fill="#ecf0f1"/>
  <!-- Bandeau titre -->
  <rect x="72" y="96" width="368" height="72" rx="40" fill="#e74c3c"/>
  <rect x="72" y="140" width="368" height="28" fill="#e74c3c"/>
  <!-- Lignes du planning -->
  <g fill="#bdc3c7">
    <rect x="104" y="200" width="304" height="8" rx="4"/>
    <rect x="104" y="240" width="304" height="8" rx="4"/>
    <rect x="104" y="280" width="304" height="8" rx="4"/>
    <rect x="104" y="320" width="304" height="8" rx="4"/>
    <rect x="104" y="360" width="304" height="8" rx="4"/>
    <rect x="104" y="400" width="304" height="8" rx="4"/>
  </g>
  <!-- Cases colorées -->
  <circle cx="148" cy="284" r="22" fill="#ffeaa7"/>
  <circle cx="220" cy="244" r="22" fill="#a29bfe"/>
  <circle cx="292" cy="324" r="22" fill="#55efc4"/>
  <circle cx="364" cy="284" r="22" fill="#f8a5c2"/>
  <circle cx="220" cy="364" r="22" fill="#fdcb6e"/>
  <circle cx="148" cy="404" r="22" fill="#81ecec"/>
  <!-- Étoile en bas -->
  <text x="256" y="448" font-size="48" text-anchor="middle">📅</text>
</svg>
